<?xml version="1.0" encoding="UTF-8" standalone="no"?>
<svg width="51px" height="57px" viewBox="0 0 51 57" version="1.1" xmlns="http://www.w3.org/2000/svg" xmlns:xlink="http://www.w3.org/1999/xlink">
    <!-- Generator: Sketch 48.2 (47327) - http://www.bohemiancoding.com/sketch -->
    <title>tree</title>
    <desc>Created with Sketch.</desc>
    <defs></defs>
    <g id="Page-1" stroke="none" stroke-width="1" fill="none" fill-rule="evenodd">
        <g id="tree" fill="#282A2D">
            <path d="M49.4596704,45.1460388 C46.8051951,42.5623062 39.1839086,40.3196114 31.351022,39.8472422 C30.7904398,40.2798943 30.3972426,40.7247263 30.1777471,41.1986842 C36.7757736,41.5021232 43.119038,43.3942479 45.462956,45.5066705 C47.5873784,47.1970321 47.265241,49.5202203 44.8039429,51.1205564 C41.2099002,53.6465668 33.7881072,54.8105439 25.7341459,54.7819476 C17.6770264,54.8105439 10.2536544,53.6460372 6.65855893,51.1205564 C4.19831352,49.5207498 3.87722886,47.1975617 6.00059856,45.5066705 C8.34451657,43.3947775 14.6856754,41.5021232 21.2868602,41.1986842 C21.0673646,40.7247263 20.6683775,40.2804238 20.1077952,39.8472422 C12.2849096,40.3196114 4.65888578,42.5623062 2.00335773,45.1460388 C-1.59279046,48.4039037 1.27275854,52.1447292 9.12827897,54.4530896 C13.5176642,55.7949995 19.6519603,56.5141446 25.7336196,56.5279132 C31.8110679,56.5141446 37.9495749,55.7949995 42.331591,54.4530896 C50.1860587,52.1447292 53.0547659,48.4039037 49.4596704,45.1460388 Z" id="Shape"></path>
            <path d="M45.2676733,18.3549715 C45.1229221,16.1811198 43.3780112,14.4891694 41.2862236,13.7170681 C42.1436775,12.50596 42.2652686,11.1757004 41.6546814,9.68763143 C40.6766891,7.34008342 37.9601023,6.59234198 36.3541526,6.70460911 C34.0660297,6.86771418 32.7074731,7.82251433 30.297759,9.68286538 C29.740335,9.24756547 28.605485,8.39920727 28.1080669,8.01315663 L28.1070142,8.01315663 C28.1070142,8.01315663 29.7498096,6.65588941 31.4784031,5.73339254 C33.1317259,4.85008325 34.2286775,4.74205262 34.2286775,4.74205262 C34.2286775,4.74205262 31.3420737,0.769279059 25.7430942,0.732739287 L25.735725,0.732739287 L25.7315141,0.732739287 L25.7273031,0.732739287 C25.7273031,0.732739287 25.7273031,0.732739287 25.719934,0.732739287 C20.1220072,0.769279059 17.2343507,4.74205262 17.2343507,4.74205262 C17.2343507,4.74205262 18.3328813,4.84955369 19.9856778,5.73339254 C21.7142713,6.65588941 23.3570667,8.01315663 23.3570667,8.01315663 C22.8575432,8.39920727 21.7237459,9.24756547 21.1652691,9.68286538 C18.7550287,7.82251433 17.3969985,6.86824375 15.1099283,6.70460911 C13.5029259,6.59287154 10.7863391,7.34008342 9.80571496,9.68763143 C9.19723321,11.1757004 9.31882429,12.50596 10.1752255,13.7170681 C8.08764885,14.4891694 6.33957974,16.1805902 6.19482846,18.3549715 C6.04691897,20.5272345 7.3180984,22.5411585 9.56305918,23.5176707 C8.93668091,24.3321369 8.63191366,25.2546338 8.63191366,26.0463288 C8.63191366,28.1508079 10.5047321,31.0348022 14.5161848,30.9188281 C17.5022722,30.8388643 18.6971282,29.904717 21.0399935,28.0777284 C21.1752701,28.2863758 23.0091373,31.1878456 23.0091373,36.2478098 C23.0091373,36.2478098 23.2602149,40.0971954 21.3568672,49.5292228 L21.3621309,49.5292228 C21.3621309,50.0328362 23.3186418,50.4384807 25.7330932,50.4384807 C28.1428072,50.4384807 30.0993182,50.0328362 30.0993182,49.5292228 L30.1077401,49.5292228 C28.199655,40.0966658 28.4533645,36.2478098 28.4533645,36.2478098 C28.4533645,31.1878456 30.2893371,28.2863758 30.4225083,28.0777284 C32.7664263,29.904717 33.9565451,30.8388643 36.9431588,30.9188281 C40.9598752,31.0348022 42.8326936,28.1508079 42.8326936,26.0463288 C42.8326936,25.2546338 42.5252945,24.3321369 41.8994426,23.5176707 C44.1465089,22.5411585 45.418741,20.5272345 45.2676733,18.3549715 Z M36.2699337,9.73370332 C38.3511939,9.61772926 39.1791713,10.8934439 39.0049434,11.7449795 C38.8022916,12.7913939 37.4874236,13.5815003 36.2767765,13.4459324 C35.0813941,13.3198967 34.1860416,12.7119596 32.7280015,11.5395095 C33.7107311,10.7716447 34.9119035,9.79354382 36.2699337,9.73370332 Z M30.351975,13.3585547 C31.0383592,13.8642863 31.6789494,14.3657815 32.1879476,14.7444183 C32.4611327,14.9530656 32.6927348,15.1521809 32.9764473,15.3354094 C32.625886,15.5948947 32.3527009,15.819429 31.9479236,16.1334592 C31.6557892,16.3611708 31.1889006,16.7043269 30.749383,17.029478 C30.0293112,16.4834996 29.1613299,15.8363749 28.14386,15.0483868 C28.8297179,14.5357709 29.5524215,13.9580188 30.351975,13.3585547 Z M27.9312072,11.5045584 C27.2437702,12.0177039 26.6305511,12.5250242 25.7646753,13.1747967 L25.7404623,13.1869766 L25.7183549,13.1747967 C24.8514263,12.5250242 24.2366281,12.0171743 23.5497175,11.5045584 C24.0997724,11.0740246 24.7587855,10.5704112 25.6678235,9.87774416 L25.7404623,9.82214016 L25.8131012,9.87774416 C26.7263502,10.5704112 27.3795732,11.0740246 27.9312072,11.5045584 Z M22.7612178,4.1706553 C22.7612178,4.1706553 23.5186618,3.34877519 25.7315141,3.33235877 C27.9443664,3.34877519 28.7023367,4.1706553 28.7023367,4.1706553 C28.7023367,4.1706553 28.1301744,4.48468552 27.310619,5.05926021 C26.281569,5.7757575 25.7594116,6.19834791 25.7315141,6.22853294 C25.7041429,6.19834791 25.1835647,5.77628706 24.1529356,5.05926021 C23.331801,4.48468552 22.7612178,4.1706553 22.7612178,4.1706553 Z M25.6315041,16.9500437 L25.7409887,16.8669024 L25.8509997,16.9500437 C26.6468685,17.5754563 27.4716877,18.1627405 28.3607237,18.8617622 C27.8306708,19.2478129 27.4053653,19.5745526 27.0332229,19.8636934 C26.653185,20.1374769 26.2394595,20.4610392 25.805732,20.7861902 L25.7404623,20.8370282 L25.6762454,20.7861902 C25.2472553,20.4610392 24.8261606,20.1369473 24.4545446,19.8636934 C24.0745067,19.5745526 23.6486747,19.2478129 23.1238856,18.8617622 C24.0076579,18.1627405 24.8393198,17.5759859 25.6315041,16.9500437 Z M21.1257915,13.3585547 C21.9237658,13.9580188 22.6538387,14.5357709 23.3423284,15.0478572 C22.3211739,15.8358454 21.4552981,16.48297 20.736279,17.0289484 C20.2957087,16.7037974 19.8282937,16.3606412 19.5356329,16.1329296 C19.131382,15.8188994 18.8560914,15.5943651 18.5092147,15.3348798 C18.7934536,15.1516514 19.0182129,14.9525361 19.2908716,14.7438887 C19.8040807,14.366311 20.4499346,13.8642863 21.1257915,13.3585547 Z M15.2141492,9.73370332 C16.571653,9.79354382 17.7712464,10.7716447 18.7471332,11.540039 C17.2943567,12.7124891 16.4021624,13.3198967 15.2015163,13.446462 C13.9913956,13.5815003 12.6833704,12.7919234 12.475455,11.7455091 C12.3022798,10.8939735 13.1270989,9.61772926 15.2141492,9.73370332 Z M9.12406802,18.9470217 C9.07880035,17.816407 9.88151199,16.260554 12.8207526,16.088976 C14.8025292,15.9735315 16.2089853,17.1729892 18.3849918,18.8061582 C16.6269217,20.1380065 15.2631014,21.2739168 12.7617993,21.455027 C10.7363341,21.5969496 9.17933669,20.0866389 9.12406802,18.9470217 Z M14.7562088,28.1031474 C12.6423137,28.2053528 11.3985054,27.1552315 11.4685124,25.9949613 C11.5285184,25.0793488 13.5281915,22.9579237 17.684922,24.8410459 C18.2670853,25.1090042 18.7229202,25.4034407 19.2092845,25.8154398 C17.1474999,27.3691745 16.3605793,28.0242426 14.7562088,28.1031474 Z M21.4658254,24.0747698 C20.6994332,23.3381492 19.8514539,22.6926132 18.7366058,22.1773494 C19.3956189,21.733047 20.0419992,21.2389657 20.7225934,20.6776301 C20.7499645,20.6463859 20.7578601,20.6463859 20.7878631,20.6267921 C21.7147976,21.3321686 22.614361,22.0068305 23.3954916,22.6121198 C22.7233193,23.1347974 22.0958883,23.6029301 21.4658254,24.0747698 Z M25.7988892,32.0314377 L25.7409887,32.2898639 L25.6809827,32.0314377 C25.178301,29.857586 24.5056023,27.9511631 23.5986698,26.5372328 C24.3534819,25.966365 25.0356552,25.4373326 25.7409887,24.9093594 C26.4484277,25.4373326 27.1295483,25.966365 27.8854131,26.5372328 C26.9784806,27.9511631 26.3005182,29.857586 25.7988892,32.0314377 Z M30.016152,24.0747698 C29.3834573,23.6034597 28.7628691,23.1347974 28.0870122,22.6121198 C28.8676164,22.0068305 29.7634952,21.3321686 30.6909562,20.6267921 C30.723591,20.6463859 30.7320129,20.6463859 30.759384,20.6776301 C31.4415573,21.2384361 32.0879376,21.7325174 32.7401079,22.1773494 C31.632629,22.6920836 30.7814915,23.3381492 30.016152,24.0747698 Z M36.7273478,28.1031474 C35.1171871,28.0237131 34.3392148,27.3691745 32.2705874,25.8154398 C32.7553726,25.4034407 33.2148921,25.1090042 33.7975818,24.8410459 C37.9574705,22.9573941 39.9513536,25.0793488 40.0060959,25.9949613 C40.0845247,27.1552315 38.8375583,28.2058824 36.7273478,28.1031474 Z M38.7201781,21.455027 C36.2199287,21.2739168 34.8529503,20.1374769 33.0959329,18.8061582 C35.2719394,17.1729892 36.6794482,15.9735315 38.6633303,16.088976 C41.59836,16.260554 42.4063353,17.816407 42.3589621,18.9470217 C42.3010616,20.0866389 40.7435378,21.5969496 38.7201781,21.455027 Z" id="Shape"></path>
        </g>
    </g>
</svg>