<?xml version="1.0" encoding="utf-8"?>
<!-- Generator: Adobe Illustrator 22.0.1, SVG Export Plug-In . SVG Version: 6.00 Build 0)  -->
<svg version="1.1" id="Layer_1" xmlns="http://www.w3.org/2000/svg" xmlns:xlink="http://www.w3.org/1999/xlink" x="0px" y="0px"
	 viewBox="0 0 577.2 106.5" style="enable-background:new 0 0 577.2 106.5;" xml:space="preserve">
<style type="text/css">
	.st0{fill:#FFFFFF;}
</style>
<g>
	<g>
		<g>
			<g>
				<path class="st0" d="M381,44.1c-1.4,1.6-3.9,3.3-8.2,3.3c-6.5,0-11.5-4.6-11.5-11.6c0-7,5-11.6,11.5-11.6c4.2,0,6.7,1.8,8,3
					l-1.3,2.5c-0.9-1.1-3.4-2.7-6.5-2.7c-4.8,0-8.4,3.5-8.4,8.7c0,5.3,3.5,8.7,8.4,8.7c3,0,5.2-1.1,6.7-2.7L381,44.1z"/>
				<path class="st0" d="M395.9,47h-3l0-2c-0.6,0.6-2.1,2.3-4.9,2.3c-2.9,0-5.3-1.8-5.3-4.8c0-3,2.5-4.6,6-4.7l4.1-0.2v-0.6
					c0-2.3-1.6-3.5-3.8-3.5c-2.2,0-4.1,1-4.6,1.3l-0.9-2.1c1.1-0.7,3.2-1.6,5.8-1.6c2.6,0,4.1,0.7,5.1,1.8c1,1.1,1.7,2.4,1.7,5
					L395.9,47L395.9,47z M392.8,39.6l-3.6,0.2c-2.5,0.1-3.5,1.2-3.5,2.7c0,1.5,1.1,2.7,3.2,2.7c2,0,3.3-1.4,3.9-2.2L392.8,39.6
					L392.8,39.6z"/>
				<path class="st0" d="M413.3,47h-3.1v-8.6c0-2.6-0.5-4.6-3.2-4.6c-2.9,0-4,2.4-4,5.4V47h-3.1V31.5h3.1l0,2.4h0.1
					c0.8-1.5,2.5-2.7,4.7-2.7c4.4,0,5.5,2.9,5.5,6.6V47z"/>
				<path class="st0" d="M429.5,47h-3l0-2c-0.6,0.6-2.1,2.3-4.9,2.3c-2.9,0-5.3-1.8-5.3-4.8c0-3,2.5-4.6,6-4.7l4.1-0.2v-0.6
					c0-2.3-1.6-3.5-3.8-3.5c-2.2,0-4.1,1-4.6,1.3l-0.9-2.1c1.1-0.7,3.2-1.6,5.8-1.6c2.6,0,4.1,0.7,5.1,1.8c1,1.1,1.7,2.4,1.7,5
					L429.5,47L429.5,47z M426.4,39.6l-3.6,0.2c-2.5,0.1-3.5,1.2-3.5,2.7c0,1.5,1.1,2.7,3.2,2.7c2,0,3.3-1.4,3.9-2.2V39.6z"/>
				<path class="st0" d="M448.4,47h-3v-2.5h-0.1c-1.3,1.9-3.2,2.8-5.4,2.8c-4.6,0-7.5-3.5-7.5-8.1c0-4.6,2.9-8,7.4-8
					c2.5,0,4.3,1.1,5.4,2.7h0.1v-9.4h3.1L448.4,47L448.4,47z M440.5,33.8c-3.1,0-4.9,2.3-4.9,5.4c0,3.1,1.8,5.5,4.9,5.5
					c3.1,0,4.9-2.4,4.9-5.5C445.4,36.1,443.6,33.8,440.5,33.8z"/>
				<path class="st0" d="M464.9,47h-3l0-2c-0.6,0.6-2.1,2.3-4.9,2.3c-2.9,0-5.3-1.8-5.3-4.8c0-3,2.5-4.6,6-4.7l4.1-0.2v-0.6
					c0-2.3-1.6-3.5-3.8-3.5c-2.2,0-4.1,1-4.7,1.3l-0.9-2.1c1.1-0.7,3.2-1.6,5.8-1.6c2.6,0,4.1,0.7,5.1,1.8c1,1.1,1.7,2.4,1.7,5
					L464.9,47L464.9,47z M461.8,39.6l-3.6,0.2c-2.5,0.1-3.5,1.2-3.5,2.7c0,1.5,1.1,2.7,3.2,2.7c2,0,3.4-1.4,3.9-2.2L461.8,39.6
					L461.8,39.6z"/>
				<path class="st0" d="M494.1,44.1c-1.4,1.6-3.9,3.3-8.2,3.3c-6.5,0-11.5-4.6-11.5-11.6c0-7,5-11.6,11.5-11.6c4.2,0,6.7,1.8,8,3
					l-1.3,2.5c-0.9-1.1-3.4-2.7-6.5-2.7c-4.8,0-8.4,3.5-8.4,8.7c0,5.3,3.5,8.7,8.4,8.7c3,0,5.2-1.1,6.7-2.7L494.1,44.1z"/>
				<path class="st0" d="M503.8,47.4c-4.6,0-8.2-3.2-8.2-8c0-4.8,3.6-8.1,8.2-8.1c4.6,0,8.2,3.3,8.2,8.1
					C512,44.1,508.4,47.4,503.8,47.4z M503.8,33.8c-3.1,0-5,2.4-5,5.4c0,3.1,1.9,5.5,5,5.5c3.1,0,5-2.4,5-5.5
					C508.8,36.2,506.9,33.8,503.8,33.8z"/>
				<path class="st0" d="M528.3,47h-3l0-2.2c-0.8,1.5-2.6,2.6-4.8,2.6c-2.2,0-3.5-0.8-4.3-1.8c-0.8-1-1.1-2.6-1.1-4.8v-9.3h3.1v9.1
					c0,2.1,0.5,4.1,3.2,4.1c2.7,0,3.8-2.3,3.8-4.9v-8.3h3.1L528.3,47L528.3,47z"/>
				<path class="st0" d="M546.1,47h-3.1v-8.6c0-2.6-0.5-4.6-3.2-4.6c-2.9,0-4,2.4-4,5.4V47h-3.1V31.5h3.1l0,2.4h0.1
					c0.8-1.5,2.5-2.7,4.7-2.7c4.4,0,5.5,2.9,5.5,6.6L546.1,47L546.1,47z"/>
				<path class="st0" d="M563.2,45c-0.5,0.5-2,2.3-6.2,2.3c-4.2,0-7.8-3.1-7.8-8.1c0-5,3.8-8,7.9-8c4.1,0,5.8,2,6,2.2l-1.1,2.3
					c-0.5-0.5-1.9-1.9-4.6-1.9c-2.7,0-5,2.1-5,5.3c0,3.2,2,5.5,5,5.5c3,0,4.7-1.9,4.7-1.9L563.2,45z"/>
				<path class="st0" d="M567.4,28.4c-1.2,0-2-0.8-2-1.9c0-1.1,0.8-1.9,2-1.9c1.2,0,2,0.8,2,1.9C569.4,27.6,568.5,28.4,567.4,28.4z
					 M568.9,47h-3.1V31.5h3.1V47z"/>
				<path class="st0" d="M576.6,47h-3.1V24.6h3.1V47z"/>
				<path class="st0" d="M370.1,63.4c0,0-0.9-0.3-1.8-0.3c-2,0-2.4,1.5-2.4,3.3v1.7h3.7v2.5h-3.7v12.9h-3.1V70.7h-2.2v-2.5h2.2v-1.6
					c0-2,0.4-3.3,1-4.1c0.7-0.8,1.9-1.7,3.7-1.7c1.8,0,2.7,0.4,2.7,0.4L370.1,63.4z"/>
				<path class="st0" d="M378.3,83.9c-4.6,0-8.2-3.2-8.2-8c0-4.8,3.6-8.1,8.2-8.1c4.6,0,8.2,3.3,8.2,8.1
					C386.4,80.7,382.9,83.9,378.3,83.9z M378.3,70.4c-3.1,0-5,2.4-5,5.4c0,3.1,1.9,5.5,5,5.5c3.1,0,5-2.4,5-5.5
					C383.3,72.8,381.4,70.4,378.3,70.4z"/>
				<path class="st0" d="M398.1,71H398c-0.3-0.1-0.8-0.3-1.7-0.3c-1.4,0-2.2,0.9-2.5,1.3c-0.3,0.4-0.9,1.6-0.9,3.9v7.7h-3.1V68.1
					h3.1l0,2.4h0.1c0.7-1.8,2.1-2.7,3.8-2.7c1,0,1.6,0.3,1.6,0.3L398.1,71z"/>
				<path class="st0" d="M414.6,83.4c0,0-1.2,0.5-2.8,0.5c-1.6,0-2.6-0.6-3.3-1.6c-0.6-1-0.8-2.2-0.8-4.6v-7.1h-2.3v-2.5h2.3v-4.6
					h3.1v4.6h3.7v2.5h-3.7v7c0,1.3,0,2.2,0.4,2.8c0.3,0.5,0.7,0.8,1.6,0.8c0.9,0,1.6-0.4,1.6-0.4L414.6,83.4z"/>
				<path class="st0" d="M430.7,83.6h-3.1v-8.7c0-2.2-0.4-4.4-3.2-4.4c-2.8,0-4,2.4-4,5.5v7.6h-3.1V61.1h3.1v9.4h0.1
					c0.8-1.5,2.5-2.7,4.7-2.7c4.5,0,5.5,2.9,5.5,6.5V83.6z"/>
				<path class="st0" d="M449,76.6h-11.9c0.2,3.1,2.1,4.9,5,4.9c2.9,0,4.7-1.6,5.1-1.8l1.3,1.8c-0.2,0.2-2.2,2.4-6.8,2.4
					c-4.6,0-7.7-3.2-7.7-8.1c0-4.9,3.5-8,7.8-8c4.3,0,7.3,3.1,7.3,7.4C449.1,75.8,449,76.6,449,76.6z M446.1,74.5
					c0-1.7-1.3-4.4-4.5-4.4c-3.1,0-4.5,2.6-4.6,4.4H446.1z"/>
				<path class="st0" d="M477.6,83.6h-3.5l-2.3-5.9h-9.6l-2.3,5.9h-3.3l9.1-22.5h2.8L477.6,83.6z M470.9,75.1L467,65L463,75.1H470.9
					z"/>
				<path class="st0" d="M488.2,71h-0.1c-0.3-0.1-0.8-0.3-1.7-0.3c-1.4,0-2.2,0.9-2.5,1.3c-0.3,0.4-0.9,1.6-0.9,3.9v7.7h-3.1V68.1
					h3.1l0,2.4h0.1c0.7-1.8,2.1-2.7,3.8-2.7c1,0,1.6,0.3,1.6,0.3L488.2,71z"/>
				<path class="st0" d="M498.2,83.4c0,0-1.2,0.5-2.8,0.5c-1.6,0-2.6-0.6-3.3-1.6c-0.7-1-0.8-2.2-0.8-4.6v-7.1H489v-2.5h2.3v-4.6
					h3.1v4.6h3.7v2.5h-3.7v7c0,1.3,0,2.2,0.4,2.8c0.3,0.5,0.7,0.8,1.6,0.8c0.9,0,1.6-0.4,1.6-0.4L498.2,83.4z"/>
				<path class="st0" d="M509.6,82.6c-1.1,0.9-2.5,1.4-4.3,1.4c-2.6,0-4.7-1.1-6-2.8l1.5-1.8c1.2,1.4,3.1,2.2,4.6,2.2s3-0.5,3-2.2
					c0-1.7-2.4-2.2-3.5-2.6c-1-0.4-1.4-0.4-2.1-0.8c-1-0.5-2.4-1.5-2.4-3.7c0-2.9,2.5-4.4,5.2-4.4c2.7,0,4.3,1,5.3,2l-1.3,1.9
					c-0.9-0.9-2.4-1.7-3.9-1.7c-1.5,0-2.5,0.7-2.5,1.9s1.5,1.8,3,2.3c0.8,0.3,1.4,0.5,2.1,0.7c0.6,0.3,1.3,0.6,1.8,1.1
					c0.6,0.6,1.2,1.5,1.2,2.9C511.2,80.5,510.6,81.7,509.6,82.6z"/>
			</g>
		</g>
		<g>
			<path class="st0" d="M138.9,44.1c-1.4,1.6-3.9,3.3-8.2,3.3c-6.5,0-11.5-4.6-11.5-11.6c0-7,5-11.6,11.5-11.6c4.2,0,6.7,1.8,8,3
				l-1.3,2.5c-0.9-1.1-3.4-2.7-6.5-2.7c-4.8,0-8.4,3.5-8.4,8.7c0,5.3,3.5,8.7,8.4,8.7c3,0,5.2-1.1,6.7-2.7L138.9,44.1z"/>
			<path class="st0" d="M148.6,47.4c-4.6,0-8.2-3.2-8.2-8c0-4.8,3.6-8.1,8.2-8.1c4.6,0,8.2,3.3,8.2,8.1
				C156.8,44.1,153.2,47.4,148.6,47.4z M148.6,33.8c-3.1,0-5,2.4-5,5.4c0,3.1,1.9,5.5,5,5.5c3.1,0,5-2.4,5-5.5
				C153.6,36.2,151.7,33.8,148.6,33.8z"/>
			<path class="st0" d="M173.5,47h-3.1v-8.6c0-2.6-0.5-4.6-3.2-4.6c-2.9,0-4,2.4-4,5.4V47H160V31.5h3.1l0,2.4h0.1
				c0.8-1.5,2.5-2.7,4.7-2.7c4.4,0,5.5,2.9,5.5,6.6L173.5,47L173.5,47z"/>
			<path class="st0" d="M186.4,46c-1.1,0.9-2.5,1.4-4.3,1.4c-2.6,0-4.7-1.1-6-2.8l1.5-1.8c1.2,1.4,3.1,2.2,4.6,2.2s3-0.5,3-2.2
				c0-1.7-2.4-2.2-3.5-2.6c-1-0.4-1.4-0.4-2.1-0.8c-1-0.5-2.4-1.5-2.4-3.7c0-2.9,2.5-4.4,5.2-4.4c2.7,0,4.3,1,5.3,2l-1.3,1.9
				c-0.9-0.9-2.4-1.7-3.9-1.7c-1.5,0-2.5,0.6-2.5,1.9c0,1.3,1.5,1.8,3,2.3c0.8,0.3,1.4,0.5,2.1,0.7c0.6,0.3,1.3,0.6,1.8,1.1
				c0.6,0.5,1.2,1.5,1.2,2.9C188,44,187.4,45.1,186.4,46z"/>
			<path class="st0" d="M205.1,40h-11.9c0.2,3.1,2.1,4.9,5,4.9c2.9,0,4.7-1.6,5.1-1.8l1.3,1.8c-0.2,0.2-2.2,2.4-6.8,2.4
				c-4.6,0-7.7-3.2-7.7-8.1c0-4.9,3.5-8,7.8-8s7.3,3.1,7.3,7.4C205.2,39.2,205.1,40,205.1,40z M202.2,37.9c0-1.7-1.3-4.4-4.5-4.4
				c-3.1,0-4.5,2.6-4.6,4.4H202.2z"/>
			<path class="st0" d="M210,28.4c-1.2,0-2-0.8-2-1.9c0-1.1,0.8-1.9,2-1.9c1.2,0,2,0.8,2,1.9C212,27.6,211.1,28.4,210,28.4z
				 M211.5,47h-3.1V31.5h3.1V47z"/>
			<path class="st0" d="M219.2,47h-3.1V24.6h3.1V47z"/>
			<path class="st0" d="M245.1,47h-3v-2.5H242c-1.3,1.9-3.2,2.8-5.4,2.8c-4.6,0-7.5-3.5-7.5-8.1c0-4.6,2.9-8,7.4-8
				c2.5,0,4.3,1.1,5.4,2.7h0.1v-9.4h3.1V47z M237.2,33.8c-3.1,0-4.9,2.3-4.9,5.4c0,3.1,1.8,5.5,4.9,5.5c3.1,0,4.9-2.4,4.9-5.5
				C242.1,36.1,240.3,33.8,237.2,33.8z"/>
			<path class="st0" d="M263.5,40h-11.9c0.2,3.1,2.1,4.9,5,4.9c2.9,0,4.7-1.6,5.1-1.8l1.3,1.8c-0.2,0.2-2.2,2.4-6.8,2.4
				c-4.6,0-7.7-3.2-7.7-8.1c0-4.9,3.5-8,7.8-8c4.3,0,7.3,3.1,7.3,7.4C263.6,39.2,263.5,40,263.5,40z M260.7,37.9
				c0-1.7-1.3-4.4-4.5-4.4c-3.1,0-4.5,2.6-4.6,4.4H260.7z"/>
			<path class="st0" d="M275.5,46c-1.1,0.9-2.5,1.4-4.3,1.4c-2.6,0-4.7-1.1-6-2.8l1.5-1.8c1.2,1.4,3.1,2.2,4.6,2.2
				c1.4,0,3-0.5,3-2.2c0-1.7-2.4-2.2-3.5-2.6c-1-0.4-1.4-0.4-2.1-0.8c-1-0.5-2.4-1.5-2.4-3.7c0-2.9,2.5-4.4,5.2-4.4
				c2.7,0,4.3,1,5.3,2l-1.3,1.9c-0.9-0.9-2.4-1.7-3.9-1.7c-1.5,0-2.5,0.6-2.5,1.9c0,1.3,1.5,1.8,3,2.3c0.8,0.3,1.4,0.5,2.1,0.7
				c0.6,0.3,1.3,0.6,1.8,1.1c0.6,0.5,1.2,1.5,1.2,2.9C277.1,44,276.5,45.1,275.5,46z"/>
			<path class="st0" d="M298.7,47h-3l0-2c-0.6,0.6-2.1,2.3-4.9,2.3c-2.9,0-5.3-1.8-5.3-4.8c0-3,2.5-4.6,6-4.7l4.1-0.2v-0.6
				c0-2.3-1.6-3.5-3.8-3.5c-2.2,0-4.1,1-4.6,1.3l-0.9-2.1c1.1-0.7,3.2-1.6,5.8-1.6c2.6,0,4.1,0.7,5.1,1.8c1,1.1,1.7,2.4,1.7,5
				L298.7,47L298.7,47z M295.6,39.6l-3.6,0.2c-2.5,0.1-3.5,1.2-3.5,2.7c0,1.5,1.1,2.7,3.2,2.7c2,0,3.3-1.4,3.9-2.2L295.6,39.6
				L295.6,39.6z"/>
			<path class="st0" d="M311.1,34.4h-0.1c-0.3-0.1-0.8-0.3-1.7-0.3c-1.4,0-2.2,0.9-2.5,1.3c-0.3,0.4-0.9,1.6-0.9,3.9V47h-3.1V31.5
				h3.1l0,2.4h0.1c0.7-1.8,2.1-2.7,3.8-2.7c1,0,1.6,0.3,1.6,0.3L311.1,34.4z"/>
			<path class="st0" d="M321.1,46.8c0,0-1.2,0.5-2.8,0.5s-2.6-0.6-3.3-1.6c-0.6-1-0.8-2.2-0.8-4.6v-7.1h-2.3v-2.5h2.3V27h3.1v4.6
				h3.7v2.5h-3.7v7c0,1.3,0,2.2,0.4,2.8c0.3,0.5,0.7,0.8,1.6,0.8c0.9,0,1.6-0.4,1.6-0.4L321.1,46.8z"/>
			<path class="st0" d="M332.5,46c-1.1,0.9-2.5,1.4-4.3,1.4c-2.6,0-4.7-1.1-6-2.8l1.5-1.8c1.2,1.4,3.1,2.2,4.6,2.2
				c1.4,0,3-0.5,3-2.2c0-1.7-2.4-2.2-3.5-2.6c-1-0.4-1.4-0.4-2.1-0.8c-1-0.5-2.4-1.5-2.4-3.7c0-2.9,2.5-4.4,5.2-4.4
				c2.7,0,4.3,1,5.3,2l-1.3,1.9c-0.9-0.9-2.4-1.7-3.9-1.7c-1.5,0-2.5,0.6-2.5,1.9c0,1.3,1.5,1.8,3,2.3c0.8,0.3,1.4,0.5,2.1,0.7
				c0.6,0.3,1.3,0.6,1.8,1.1c0.6,0.5,1.2,1.5,1.2,2.9C334.1,44,333.5,45.1,332.5,46z"/>
			<path class="st0" d="M135.1,83.6h-3v-2.5h-0.1c-1.3,1.9-3.2,2.8-5.4,2.8c-4.6,0-7.5-3.5-7.5-8.1c0-4.6,2.9-8,7.4-8
				c2.5,0,4.3,1.1,5.4,2.7h0.1v-9.4h3.1L135.1,83.6L135.1,83.6z M127.2,70.4c-3.1,0-4.9,2.3-4.9,5.4c0,3.1,1.8,5.5,4.9,5.5
				c3.1,0,4.9-2.4,4.9-5.5C132.1,72.7,130.3,70.4,127.2,70.4z"/>
			<path class="st0" d="M152.7,83.6h-3l0-2.2c-0.8,1.5-2.6,2.6-4.8,2.6c-2.2,0-3.5-0.8-4.3-1.8c-0.8-1-1.1-2.6-1.1-4.8v-9.3h3.1v9.1
				c0,2.1,0.5,4.1,3.2,4.1c2.7,0,3.8-2.3,3.8-4.9v-8.3h3.1L152.7,83.6L152.7,83.6z"/>
			<path class="st0" d="M182.2,80.6c-1.4,1.6-3.9,3.3-8.2,3.3c-6.5,0-11.5-4.6-11.5-11.6c0-7,5-11.6,11.5-11.6c4.2,0,6.7,1.8,8,3
				l-1.3,2.5c-0.9-1.1-3.4-2.7-6.5-2.7c-4.8,0-8.4,3.5-8.4,8.7c0,5.3,3.5,8.7,8.4,8.7c3,0,5.2-1.1,6.7-2.7L182.2,80.6z"/>
			<path class="st0" d="M197.1,83.6h-3l0-2c-0.6,0.7-2.1,2.3-4.9,2.3c-2.9,0-5.3-1.8-5.3-4.8c0-3,2.5-4.5,6-4.7l4.1-0.2v-0.6
				c0-2.3-1.6-3.5-3.8-3.5c-2.2,0-4.1,1-4.6,1.3l-0.9-2.1c1.1-0.6,3.2-1.6,5.8-1.6s4.1,0.7,5.1,1.8c1,1.1,1.7,2.4,1.7,5L197.1,83.6
				L197.1,83.6z M194,76.2l-3.6,0.2c-2.5,0.1-3.5,1.2-3.5,2.7c0,1.5,1.1,2.7,3.2,2.7c2,0,3.3-1.4,3.9-2.2L194,76.2L194,76.2z"/>
			<path class="st0" d="M214.5,83.6h-3.1v-8.6c0-2.6-0.5-4.6-3.2-4.6c-2.9,0-4,2.4-4,5.4v7.8h-3.1V68.1h3.1l0,2.4h0.1
				c0.8-1.5,2.5-2.7,4.7-2.7c4.4,0,5.5,2.9,5.5,6.6L214.5,83.6L214.5,83.6z"/>
			<path class="st0" d="M230.7,83.6h-3l0-2c-0.6,0.7-2.1,2.3-4.9,2.3c-2.9,0-5.3-1.8-5.3-4.8c0-3,2.5-4.5,6-4.7l4.1-0.2v-0.6
				c0-2.3-1.6-3.5-3.8-3.5s-4.1,1-4.7,1.3l-0.9-2.1c1.1-0.6,3.2-1.6,5.8-1.6c2.6,0,4.1,0.7,5.1,1.8c1,1.1,1.7,2.4,1.7,5V83.6z
				 M227.6,76.2l-3.6,0.2c-2.5,0.1-3.5,1.2-3.5,2.7c0,1.5,1.1,2.7,3.2,2.7c2,0,3.4-1.4,3.9-2.2L227.6,76.2L227.6,76.2z"/>
			<path class="st0" d="M249.6,83.6h-3v-2.5h-0.1c-1.3,1.9-3.2,2.8-5.4,2.8c-4.6,0-7.5-3.5-7.5-8.1c0-4.6,2.9-8,7.4-8
				c2.5,0,4.3,1.1,5.4,2.7h0.1v-9.4h3.1V83.6z M241.7,70.4c-3.1,0-4.9,2.3-4.9,5.4c0,3.1,1.8,5.5,4.9,5.5c3.1,0,4.9-2.4,4.9-5.5
				C246.6,72.7,244.8,70.4,241.7,70.4z"/>
			<path class="st0" d="M266.1,83.6h-3l0-2c-0.6,0.7-2.1,2.3-4.9,2.3c-2.9,0-5.3-1.8-5.3-4.8c0-3,2.5-4.5,6-4.7l4.1-0.2v-0.6
				c0-2.3-1.6-3.5-3.8-3.5s-4.1,1-4.6,1.3l-0.9-2.1c1.1-0.6,3.2-1.6,5.8-1.6c2.6,0,4.1,0.7,5.1,1.8c1,1.1,1.7,2.4,1.7,5L266.1,83.6
				L266.1,83.6z M263,76.2l-3.6,0.2c-2.5,0.1-3.5,1.2-3.5,2.7c0,1.5,1.1,2.7,3.2,2.7c2,0,3.4-1.4,3.9-2.2L263,76.2L263,76.2z"/>
		</g>
	</g>
	<g>
		<path class="st0" d="M93.6,84.4c-5-4.9-19.5-9.1-34.4-10c-1.1,0.8-1.8,1.7-2.2,2.6c12.5,0.6,24.6,4.1,29,8.1
			c4,3.2,3.4,7.6-1.3,10.6c-6.8,4.8-20.9,7-36.2,6.9c-15.3,0.1-29.4-2.1-36.2-6.9c-4.7-3-5.3-7.4-1.3-10.6c4.5-4,16.5-7.6,29-8.1
			c-0.4-0.9-1.2-1.7-2.2-2.6C23,75.3,8.5,79.6,3.5,84.4C-3.3,90.6,2.1,97.6,17,102c8.3,2.5,20,3.9,31.5,3.9
			c11.5,0,23.2-1.4,31.5-3.9C95,97.6,100.4,90.6,93.6,84.4z"/>
		<path class="st0" d="M85.6,33.9c-0.3-4.1-3.6-7.3-7.6-8.8c1.6-2.3,1.9-4.8,0.7-7.6c-1.9-4.4-7-5.8-10.1-5.6
			c-4.3,0.3-6.9,2.1-11.5,5.6c-1.1-0.8-3.2-2.4-4.2-3.2h0c0,0,3.1-2.6,6.4-4.3c3.1-1.7,5.2-1.9,5.2-1.9s-5.5-7.5-16.1-7.6
			c0,0,0,0,0,0c0,0,0,0,0,0s0,0,0,0c0,0,0,0,0,0C37.9,0.7,32.4,8.2,32.4,8.2s2.1,0.2,5.2,1.9c3.3,1.7,6.4,4.3,6.4,4.3
			c-0.9,0.7-3.1,2.3-4.2,3.2c-4.6-3.5-7.2-5.3-11.5-5.6c-3-0.2-8.2,1.2-10.1,5.6c-1.2,2.8-0.9,5.3,0.7,7.6c-4,1.5-7.3,4.6-7.6,8.8
			c-0.3,4.1,2.1,7.9,6.4,9.7c-1.2,1.5-1.8,3.3-1.8,4.8c0,4,3.6,9.4,11.2,9.2c5.7-0.2,7.9-1.9,12.4-5.4c0.3,0.4,3.7,5.9,3.7,15.4
			c0,0,0.5,7.3-3.1,25.1h0c0,0.9,3.7,1.7,8.3,1.7c4.6,0,8.3-0.8,8.3-1.7h0c-3.6-17.8-3.1-25.1-3.1-25.1c0-9.5,3.5-15,3.7-15.4
			c4.5,3.4,6.7,5.2,12.4,5.4c7.6,0.2,11.2-5.2,11.2-9.2c0-1.5-0.6-3.2-1.8-4.8C83.5,41.8,85.9,38,85.6,33.9z M68.6,17.6
			c4-0.2,5.5,2.2,5.2,3.8c-0.4,2-2.9,3.5-5.2,3.2c-2.3-0.2-4-1.4-6.7-3.6C63.7,19.6,66,17.7,68.6,17.6z M57.3,24.4
			c1.3,1,2.5,1.9,3.5,2.6c0.5,0.4,1,0.8,1.5,1.1c-0.7,0.5-1.2,0.9-2,1.5c-0.6,0.4-1.4,1.1-2.3,1.7c-1.4-1-3-2.3-4.9-3.7
			C54.4,26.7,55.8,25.6,57.3,24.4z M52.7,20.9c-1.3,1-2.5,1.9-4.1,3.2l0,0l0,0c-1.6-1.2-2.8-2.2-4.1-3.2c1-0.8,2.3-1.8,4-3.1
			l0.1-0.1l0.1,0.1C50.4,19.2,51.7,20.1,52.7,20.9z M42.9,7.1c0,0,1.4-1.5,5.6-1.6c4.2,0,5.6,1.6,5.6,1.6s-1.1,0.6-2.6,1.7
			c-2,1.4-2.9,2.1-3,2.2c-0.1-0.1-1-0.9-3-2.2C44,7.7,42.9,7.1,42.9,7.1z M48.4,31.2l0.2-0.2l0.2,0.2c1.5,1.2,3.1,2.3,4.8,3.6
			c-1,0.7-1.8,1.3-2.5,1.9c-0.7,0.5-1.5,1.1-2.3,1.7l-0.1,0.1l-0.1-0.1c-0.8-0.6-1.6-1.2-2.3-1.7c-0.7-0.5-1.5-1.2-2.5-1.9
			C45.3,33.5,46.9,32.4,48.4,31.2z M39.8,24.4c1.5,1.1,2.9,2.2,4.2,3.2c-1.9,1.5-3.6,2.7-4.9,3.7c-0.8-0.6-1.7-1.3-2.3-1.7
			c-0.8-0.6-1.3-1-1.9-1.5c0.5-0.3,1-0.7,1.5-1.1C37.3,26.3,38.5,25.4,39.8,24.4z M28.6,17.6c2.6,0.1,4.9,2,6.7,3.4
			c-2.8,2.2-4.5,3.4-6.7,3.6c-2.3,0.3-4.8-1.2-5.2-3.2C23.1,19.8,24.6,17.4,28.6,17.6z M17,35c-0.1-2.1,1.4-5.1,7-5.4
			c3.8-0.2,6.4,2,10.6,5.1c-3.3,2.5-5.9,4.7-10.7,5C20.1,40,17.1,37.1,17,35z M27.7,52.3c-4,0.2-6.4-1.8-6.2-4
			c0.1-1.7,3.9-5.7,11.8-2.2c1.1,0.5,2,1.1,2.9,1.8C32.2,50.9,30.8,52.1,27.7,52.3z M40.4,44.7c-1.5-1.4-3.1-2.6-5.2-3.6
			c1.3-0.8,2.5-1.8,3.8-2.8c0.1-0.1,0.1-0.1,0.1-0.1c1.8,1.3,3.5,2.6,4.9,3.7C42.8,42.9,41.6,43.8,40.4,44.7z M48.7,59.7l-0.1,0.5
			l-0.1-0.5c-1-4.1-2.2-7.7-4-10.4c1.4-1.1,2.7-2.1,4.1-3.1c1.3,1,2.6,2,4.1,3.1C50.9,52,49.6,55.6,48.7,59.7z M56.7,44.7
			c-1.2-0.9-2.4-1.8-3.7-2.8c1.5-1.1,3.2-2.4,4.9-3.7c0.1,0,0.1,0,0.1,0.1c1.3,1.1,2.5,2,3.8,2.8C59.7,42.1,58.1,43.3,56.7,44.7z
			 M69.4,52.3c-3.1-0.2-4.5-1.4-8.5-4.3c0.9-0.8,1.8-1.3,2.9-1.8c7.9-3.6,11.7,0.5,11.8,2.2C75.8,50.5,73.4,52.5,69.4,52.3z
			 M73.2,39.7c-4.7-0.3-7.3-2.5-10.7-5c4.1-3.1,6.8-5.3,10.6-5.1c5.6,0.3,7.1,3.3,7,5.4C80,37.1,77,40,73.2,39.7z"/>
	</g>
</g>
</svg>
